<svg xmlns="http://www.w3.org/2000/svg" viewBox="0 0 32 32">
  <rect width="32" height="32" rx="6" fill="#0a0a14"/>
  <!-- hat cone -->
  <path d="M16 4 C14.5 9 13 13 11 18 C13 19 19 19 21 18 C19 13 17.5 9 16 4 Z" fill="#e7c27d"/>
  <path d="M16 4 C15 8 14 13 12.5 17.5 C13.4 17.9 14.2 18.1 15 18.2 C15.2 12 15.6 8 16 4 Z" fill="#f3d99b" opacity="0.5"/>
  <!-- brim -->
  <ellipse cx="16" cy="19.2" rx="9.5" ry="2.4" fill="#e7c27d"/>
  <ellipse cx="16" cy="18.8" rx="9.5" ry="2" fill="#f3d99b" opacity="0.35"/>
  <!-- star on hat -->
  <path d="M16 10.60 L16.85 12.55 L18.28 12.69 L17.14 13.93 L17.49 15.81 L16 14.80 L14.51 15.81 L14.86 13.93 L13.72 12.69 L15.15 12.55 Z" fill="#0a0a14"/>
  <!-- sparkles -->
  <path d="M24 7.50 L24.53 8.71 L25.43 8.81 L24.71 9.58 L24.93 10.76 L24 10.13 L23.07 10.76 L23.29 9.58 L22.57 8.81 L23.47 8.71 Z" fill="#f3d99b"/>
  <path d="M8 11 L8.42 11.98 L9.14 12.05 L8.57 12.66 L8.74 13.61 L8 13.10 L7.26 13.61 L7.43 12.66 L6.86 12.05 L7.58 11.98 Z" fill="#f3d99b"/>
  <circle cx="22" cy="14.5" r="0.7" fill="#f3d99b"/>
  <circle cx="10.5" cy="7.5" r="0.6" fill="#f3d99b"/>
</svg>
